# xmcd
#
# Track frame offsets: 
#        150
#        12970
#        30005
#        49943
#        66155
#        82190
#        97343
#        108678
#        126013
#        145468
#        172003
#        185020
#        205688
#        216115
#
# Disc length: 3183 seconds
#
# Revision: 0
# Processed by: cddbd v1.5.2PL0 Copyright (c) Steve Scherf et al.
# Submitted via: ExactAudioCopy v0.99pb5
#
DISCID=d00c6d0e
DTITLE=Screamin' Jay Hawkins - I Put A Spell On You
DYEAR=1972
DGENRE=Blues
TTITLE0=Ashes
TTITLE1=Don't Deceive Me
TTITLE2=Guess Who
TTITLE3=I Don't Know
TTITLE4=I Put a Spell on You
TTITLE5=It's Only Make Believe
TTITLE6=Itty Bitty Pretty One
TTITLE7=Please Don't Leave Me
TTITLE8=Portrait of a Man
TTITLE9=Same Damn Thing
TTITLE10=We Love
TTITLE11=What Good is It Pt. 1
TTITLE12=What Good Is It Pt. 2
TTITLE13=What's Gonna happen on the 8th Day
EXTD=
EXTT0=
EXTT1=
EXTT2=
EXTT3=
EXTT4=
EXTT5=
EXTT6=
EXTT7=
EXTT8=
EXTT9=
EXTT10=
EXTT11=
EXTT12=
EXTT13=
PLAYORDER=
